<?xml version="1.0" standalone="no"?>
<!DOCTYPE svg PUBLIC "-//W3C//DTD SVG 20010904//EN"
 "http://www.w3.org/TR/2001/REC-SVG-20010904/DTD/svg10.dtd">
<svg version="1.0" xmlns="http://www.w3.org/2000/svg"
 width="300.000000pt" height="300.000000pt" viewBox="0 0 300.000000 300.000000"
 preserveAspectRatio="xMidYMid meet">
<metadata>
Created by potrace 1.11, written by Peter Selinger 2001-2013
</metadata>
<g transform="translate(0.000000,300.000000) scale(0.100000,-0.100000)"
fill="#000000" stroke="none">
<path d="M1478 2955 c-2 -2 -34 -6 -73 -9 -212 -17 -322 -47 -530 -147 -253
-120 -501 -357 -639 -612 -119 -219 -179 -452 -179 -702 0 -77 11 -223 17
-234 3 -3 7 -25 11 -48 13 -88 66 -246 121 -358 108 -221 282 -419 487 -555
89 -59 245 -140 269 -140 8 0 18 -4 23 -9 20 -17 198 -66 285 -77 96 -13 146
-16 225 -16 90 0 177 7 225 17 14 3 39 8 55 11 140 25 302 87 443 170 251 148
445 357 575 619 62 126 101 244 132 405 23 118 23 374 0 480 -3 14 -10 47 -15
73 -25 125 -99 309 -178 442 -106 178 -299 371 -478 479 -115 69 -314 152
-404 169 -14 3 -36 8 -50 11 -44 10 -83 16 -155 21 -127 10 -164 12 -167 10z
m212 -168 c80 -13 113 -21 187 -43 46 -14 85 -24 88 -24 17 1 245 -127 308
-174 366 -270 562 -720 514 -1178 -12 -111 -57 -275 -103 -376 -13 -29 -24
-55 -24 -57 0 -2 -22 -42 -49 -88 -160 -270 -417 -478 -712 -576 -146 -49
-246 -64 -409 -65 -467 0 -883 243 -1114 652 -62 109 -123 281 -141 392 -3 19
-9 60 -14 90 -20 119 1 376 40 505 7 22 13 42 14 45 5 25 55 140 88 204 110
213 297 408 502 527 136 79 346 151 480 165 33 4 62 8 63 9 5 4 251 -3 282 -8z"/>
<path d="M1318 2650 c-161 -30 -378 -113 -378 -144 0 -9 13 -37 29 -64 39 -67
81 -140 103 -182 10 -19 23 -42 28 -50 10 -14 87 -151 152 -270 17 -30 42 -74
55 -97 l24 -41 46 20 c76 34 195 32 265 -3 10 -5 23 -9 30 -9 13 0 68 82 68
100 0 6 5 10 10 10 6 0 10 4 10 8 0 5 74 136 165 292 91 155 165 286 165 290
0 22 -289 133 -345 131 -2 0 -19 5 -37 10 -61 19 -285 18 -390 -1z"/>
<path d="M1457 1728 c-54 -11 -90 -32 -126 -74 -42 -47 -53 -76 -57 -147 -7
-131 93 -239 220 -238 64 1 73 3 116 25 127 66 166 248 74 354 -60 70 -140 98
-227 80z"/>
<path d="M348 1499 c-25 -16 17 -283 63 -409 22 -59 80 -182 90 -190 3 -3 13
-19 22 -36 42 -82 191 -238 304 -320 84 -60 86 -61 109 -17 12 21 83 144 159
273 76 129 160 272 186 317 l47 82 -24 16 c-46 30 -115 114 -119 145 0 3 -4
10 -8 16 -3 7 -10 29 -13 50 -3 22 -8 46 -9 54 -2 8 -4 17 -4 20 -1 7 -791 6
-803 -1z"/>
<path d="M2053 1502 c-202 -2 -203 -2 -203 -25 0 -34 -27 -115 -52 -156 -24
-38 -44 -61 -94 -101 l-31 -26 60 -104 c57 -101 194 -345 226 -403 9 -16 21
-36 26 -45 6 -10 27 -47 48 -85 l38 -67 29 15 c81 42 231 174 307 271 110 139
207 344 229 480 3 22 8 42 10 45 3 5 13 107 18 178 1 14 -24 16 -189 18 -104
1 -196 3 -205 5 -8 2 -106 2 -217 0z"/>
</g>
</svg>
